<svg width="587" height="398" viewBox="0 0 587 398" fill="none" xmlns="http://www.w3.org/2000/svg">
<rect width="587" height="398" fill="#F5F5F5"/>
<path fill-rule="evenodd" clip-rule="evenodd" d="M271.135 201.563C229.26 201.564 187.385 201.557 145.51 201.593C144.262 201.594 143.386 201.234 142.497 200.178C138.801 195.789 135.039 191.471 131.239 187.2C130.169 185.998 129.861 185.264 131.131 183.812C143.349 169.847 155.492 155.795 167.65 141.76C181.702 125.539 195.745 109.309 209.796 93.087C218.501 83.037 227.197 72.976 235.958 62.989C236.595 62.262 237.724 61.745 238.625 61.744C274.884 61.682 311.143 61.683 347.402 61.742C348.24 61.743 349.286 62.251 349.882 62.933C358.591 72.88 367.233 82.905 375.914 92.884C376.62 93.695 376.822 94.095 376.022 95.155C374.311 97.42 372.461 98.324 369.745 98.316C330.433 98.192 291.122 98.236 251.811 98.207C250.516 98.206 249.612 98.592 248.65 99.709C232.704 118.226 216.703 136.679 200.709 155.141C198.08 158.176 195.422 161.177 192.791 164.209C192.551 164.485 192.412 164.876 192.225 165.214C192.558 165.293 192.889 165.434 193.222 165.438C194.931 165.458 196.64 165.438 198.349 165.438C278.803 165.437 359.257 165.438 439.711 165.415C440.871 165.415 441.719 165.714 442.586 166.734C447.407 172.408 452.264 178.048 457.238 183.543C458.564 185.008 458.001 185.724 457.062 186.804C446.097 199.431 435.15 212.078 424.196 224.718C409.187 242.034 394.177 259.348 379.169 276.663C364.934 293.086 350.694 309.504 336.465 325.933C322.581 341.961 308.692 357.984 294.86 374.071C293.733 375.383 293.199 375.213 292.164 374.014C271.465 350.039 250.73 326.105 229.998 302.167C223.877 295.1 217.765 288.022 211.592 281.017C210.619 279.913 210.67 279.309 211.604 278.241C218.4 270.477 225.167 262.678 231.876 254.816C232.845 253.68 233.297 254.13 234.032 254.98C246.826 269.773 259.637 284.546 272.445 299.324C279.13 307.037 285.833 314.73 292.477 322.489C293.311 323.463 293.709 323.527 294.575 322.523C309.07 305.718 323.618 288.978 338.124 272.186C357.916 249.273 377.683 226.329 397.46 203.398C397.503 203.348 397.539 203.292 397.579 203.239C397.933 202.773 398.288 202.308 398.642 201.843C398.075 201.749 397.508 201.575 396.941 201.575C355.007 201.562 313.071 201.563 271.135 201.563Z" fill="black"/>
<path fill-rule="evenodd" clip-rule="evenodd" d="M188.028 57.607C187.382 58.173 187.058 58.395 186.8 58.691C174.717 72.614 162.637 86.539 150.565 100.473C137.893 115.098 125.229 129.733 112.564 144.366C99.635 159.302 86.722 174.256 73.755 189.149C72.745 190.308 72.546 190.877 73.658 192.157C101.974 224.764 130.248 257.421 158.534 290.062C167.889 300.858 177.249 311.649 186.638 322.405C187.462 323.349 187.548 323.907 186.682 324.896C179.409 333.209 172.172 341.562 164.949 349.933C164.284 350.704 163.981 350.957 163.148 349.993C147.797 332.191 132.398 314.445 117.005 296.693C100.791 277.993 84.564 259.307 68.357 240.598C54.918 225.084 41.497 209.549 28.078 194.012C27.117 192.899 25.561 191.715 25.528 190.518C25.498 189.447 27.178 188.298 28.123 187.206C43.799 169.088 59.472 150.966 75.159 132.862C90.806 114.804 106.473 96.768 122.123 78.714C135.486 63.298 148.841 47.873 162.191 32.443C163.972 30.384 163.946 30.364 165.66 32.342C172.685 40.453 179.711 48.564 186.749 56.661C187.039 56.992 187.448 57.185 188.028 57.607Z" fill="black"/>
<path fill-rule="evenodd" clip-rule="evenodd" d="M421.293 30.806C421.623 31.17 421.892 31.454 422.148 31.75C433.789 45.18 445.428 58.612 457.07 72.042C471.123 88.252 485.183 104.454 499.23 120.671C513.75 137.433 528.255 154.21 542.77 170.977C548.155 177.196 553.509 183.453 558.969 189.583C560.178 190.94 560.018 191.604 558.909 192.875C547.159 206.355 535.47 219.907 523.757 233.432C511.008 248.153 498.254 262.869 485.499 277.583C472.094 293.047 458.685 308.507 445.279 323.971C437.734 332.674 430.185 341.372 422.667 350.104C421.974 350.91 421.604 351.032 420.842 350.144C413.502 341.601 406.141 333.083 398.716 324.641C397.659 323.438 398.508 322.988 399.031 322.382C407.857 312.171 416.701 301.982 425.536 291.782C436.694 278.902 447.845 266.014 459.007 253.138C469.05 241.553 479.109 229.987 489.15 218.4C496.818 209.55 504.448 200.658 512.156 191.856C513.074 190.808 512.848 190.322 512.101 189.465C504.492 180.739 496.901 171.992 489.316 163.238C478.762 151.057 468.224 138.86 457.669 126.68C447.065 114.445 436.446 102.226 425.84 89.994C416.742 79.503 407.659 68.995 398.541 58.528C397.896 57.788 398.013 57.513 398.605 56.834C405.828 48.554 413.009 40.227 420.207 31.917C420.543 31.53 420.918 31.188 421.293 30.806Z" fill="black"/>
<path fill-rule="evenodd" clip-rule="evenodd" d="M278.391 131.881C278.391 122.234 278.423 112.586 278.359 102.94C278.349 101.41 278.615 100.934 280.03 100.949C288.514 101.037 296.999 101.043 305.482 100.945C306.944 100.928 307.147 101.477 307.129 102.956C307.06 108.94 307.095 114.927 307.108 120.913C307.11 121.456 307.235 121.999 307.303 122.542C307.689 122.226 308.124 121.966 308.454 121.585C313.715 115.516 318.994 109.468 324.189 103.326C325.585 101.676 326.982 100.902 329.085 100.924C342.391 101.062 355.696 100.991 369.003 101.006C369.51 101.006 370.017 101.167 370.524 101.253C370.213 101.664 369.923 102.098 369.591 102.482C352.658 122.051 335.718 141.61 318.801 161.195C317.886 162.255 316.97 162.734 315.625 162.726C303.906 162.656 292.187 162.628 280.468 162.745C278.627 162.763 278.326 162.142 278.346 160.191C278.443 150.754 278.391 141.318 278.391 131.881Z" fill="black"/>
<path fill-rule="evenodd" clip-rule="evenodd" d="M307.331 254.377C307.334 270.001 307.308 285.625 307.368 301.248C307.375 303.149 306.942 304.498 305.729 305.837C301.946 310.012 298.266 314.316 294.617 318.648C293.758 319.668 293.276 319.596 292.456 318.633C288.186 313.616 283.842 308.684 279.582 303.656C279.107 303.095 278.758 302.12 278.758 301.336C278.716 269.666 278.732 237.997 278.693 206.327C278.691 204.874 278.96 204.46 280.268 204.472C288.746 204.548 297.226 204.558 305.704 204.466C307.13 204.45 307.364 204.935 307.36 206.45C307.31 222.426 307.329 238.402 307.331 254.377Z" fill="black"/>
</svg>
